<?xml version="1.0" encoding="UTF-8"?>
<svg id="Calque_1" data-name="Calque 1" xmlns="http://www.w3.org/2000/svg" xmlns:xlink="http://www.w3.org/1999/xlink" viewBox="0 0 287.25 56.99">
  <defs>
    <linearGradient id="Dégradé_sans_nom_4" data-name="Dégradé sans nom 4" x1="69.99" y1="28.33" x2="122.49" y2="28.33" gradientUnits="userSpaceOnUse">
      <stop offset="0" stop-color="#fff"/>
      <stop offset="1" stop-color="#1d1d1b"/>
    </linearGradient>
    <linearGradient id="Dégradé_sans_nom_9" data-name="Dégradé sans nom 9" x1="-8.86" y1="40.34" x2="64.62" y2="17.88" gradientUnits="userSpaceOnUse">
      <stop offset="0" stop-color="#fff"/>
      <stop offset=".11" stop-color="#fafafa"/>
      <stop offset=".24" stop-color="#ebebeb"/>
      <stop offset=".39" stop-color="#d4d4d3"/>
      <stop offset=".53" stop-color="#b3b3b2"/>
      <stop offset=".69" stop-color="#898988"/>
      <stop offset=".85" stop-color="#565654"/>
      <stop offset="1" stop-color="#1d1d1b"/>
    </linearGradient>
    <linearGradient id="Dégradé_sans_nom_3" data-name="Dégradé sans nom 3" x1="187.36" y1="28.5" x2="239.4" y2="28.5" gradientUnits="userSpaceOnUse">
      <stop offset="0" stop-color="#fff"/>
      <stop offset="1" stop-color="#1d1d1b"/>
    </linearGradient>
    <linearGradient id="Dégradé_sans_nom_7" data-name="Dégradé sans nom 7" x1="246.31" y1="41" x2="298.29" y2="41" gradientUnits="userSpaceOnUse">
      <stop offset="0" stop-color="#fff"/>
      <stop offset="1" stop-color="#1d1d1b"/>
    </linearGradient>
    <linearGradient id="Dégradé_sans_nom_6" data-name="Dégradé sans nom 6" x1="248.15" y1="16.05" x2="300.05" y2="16.05" gradientUnits="userSpaceOnUse">
      <stop offset="0" stop-color="#fff"/>
      <stop offset=".92" stop-color="#1d1d1b"/>
    </linearGradient>
    <linearGradient id="Dégradé_sans_nom" data-name="Dégradé sans nom" x1="157.23" y1="28.47" x2="178.74" y2="28.47" gradientUnits="userSpaceOnUse">
      <stop offset="0" stop-color="#fff"/>
      <stop offset="1" stop-color="#1d1d1b"/>
    </linearGradient>
    <linearGradient id="Dégradé_sans_nom_8" data-name="Dégradé sans nom 8" x1="118.34" y1="28.63" x2="138.67" y2="28.63" gradientUnits="userSpaceOnUse">
      <stop offset="0" stop-color="#fff"/>
      <stop offset="1" stop-color="#1d1d1b"/>
    </linearGradient>
  </defs>
  <path d="M106.34,43.12c-.59-4.82-4.56-10.41-9.54-11.45-8.99-1.87-23.16.96-32.84-.16-3.04-.35-5.54-1.75-3.37-4.91.81-.59,1.71-.91,2.69-1.06,9.95-1.53,23.36.99,33.73-.01,12.57-1.21,11.59-18.25.73-19.56-6.05-.73-35.26,1.36-37.72-.91-1.26-1.68-.4-3.96,1.71-4.32,11.73.92,25.25-1.23,36.75,0,7.45.8,13.67,8.54,13.06,16.03-.46,5.56-4.07,8.92-7.43,12.84,7.29,4.23,8.55,15.63,7.53,23.29-.63,4.73-5.28,3.55-5.28,2.21,0-3.68.43-8.52,0-12Z" fill="url(#Dégradé_sans_nom_4)"/>
  <path d="M52.16,5.06c-2.93,2.84-37.48-.74-43.73,1.63-1.73,1.42-2.33,3.53-2.57,5.68-.84,7.4-.58,22.39-.03,30.03.24,3.37.34,7.55,4.32,8.43,12.39,1.47,27.49-1.44,39.54.23,2.31.32,4.12,1.59,2.75,4.1-.77.92-1.58.98-2.67,1.12-7.78.98-31.95.93-39.8-.02-5.87-.71-8.8-5.4-9.35-10.9-.84-8.33-.78-25.37-.04-33.77C1.06,6.11,4.21,1.43,9.96.73c7.76-.93,32.13-1.01,39.8-.02,2.46.32,4.56,2.25,2.4,4.35Z" fill="url(#Dégradé_sans_nom_9)"/>
  <path d="M214.7.75c4.97.82,11.39,7.13,12.91,11.84,1.67,5.15,1.67,27.38-.18,32.39-1.43,3.86-8.6,11.27-12.73,11.27h-36.75c-1.38,0-2.17-4.53,1.52-5.23,10.26-.88,22.19,1.11,32.23-.02,5.21-.58,10.56-5.08,11.44-10.31.81-4.84.6-16.44.21-21.6-1.59-21.2-29.84-10.47-43.88-13.11-3.69-.7-2.9-5.23-1.52-5.23h36.75Z" fill="url(#Dégradé_sans_nom_3)"/>
  <path d="M236.45,56.24c-2.13-.65-1.21-5.19,1.52-5.23,11.11-1.03,24.41,1.3,35.24,0,7.91-.95,11.11-9.99,6.35-16.14-3.81-4.92-7.42-2.5-12.55-4.31l-.26-3.82c15.24-5.71,27.9,14.6,15.43,25.75-.99.89-5.76,3.75-6.74,3.75h-39Z" fill="url(#Dégradé_sans_nom_7)"/>
  <path d="M246.2.75h39.75c1.38,0,2.17,4.53-1.52,5.23-11.11,1.03-24.41-1.3-35.24,0-7.97.96-11.19,9.87-6.35,16.14,4.42,5.71,8.71,1.25,13.17,5.61-.59,6.42-11.14,2.88-14.61.32-10.42-7.66-6.94-23.17,4.81-27.31Z" fill="url(#Dégradé_sans_nom_6)"/>
  <path d="M164.83,1.87c.65-2.13,5.19-1.21,5.23,1.52-1.3,11.53,1.96,27.68-.31,38.64-.86,4.16-5.19,10.02-8.88,12.11-2.61,1.48-11.8,4.12-11.8-.53,0-3.07,4.6-2.5,6.63-3.13,3.73-1.17,9.13-6.35,9.13-10.36V1.87Z" fill="url(#Dégradé_sans_nom)"/>
  <path d="M118.34,1.87l3.26-1.04c1.18.38,1.76,2.2,1.94,3.33,1.6,10.45-2.38,30.72.96,39.54,2.65,7,8.17,5.42,12.57,7.68,1.78.91,2.36,4.05.28,4.74-4.27,1.4-11.63-2.33-14.51-5.51-.71-.79-4.5-7.06-4.5-7.5V1.87Z" fill="url(#Dégradé_sans_nom_8)"/>
</svg>